HIERARCHY
ROOT Hips
{
	OFFSET -3.958830 18.904000 13.208200
	CHANNELS 6 Xposition Yposition Zposition Zrotation Yrotation Xrotation 
	JOINT LHipJoint
	{
		OFFSET 0.000000 0.000000 0.000000
		CHANNELS 3 Zrotation Yrotation Xrotation
		JOINT LeftUpLeg
		{
			OFFSET 1.800000 -1.400000 0.085000
			CHANNELS 3 Zrotation Yrotation Xrotation
			JOINT LeftLeg
			{
				OFFSET 2.215000 -6.000000 0.000000
				CHANNELS 3 Zrotation Yrotation Xrotation
				JOINT LeftFoot
				{
					OFFSET 2.500000 -6.900000 0.000000
					CHANNELS 3 Zrotation Yrotation Xrotation
					JOINT LeftToeBase
					{
						OFFSET 0.200000 -0.500000 1.950000
						CHANNELS 3 Zrotation Yrotation Xrotation
						End Site
						{
							OFFSET 0.000000 0.000000 0.000000
						}
					}
				}
			}
		}
	}
	JOINT RHipJoint
	{
		OFFSET 0.000000 0.000000 0.000000
		CHANNELS 3 Zrotation Yrotation Xrotation
		JOINT RightUpLeg
		{
			OFFSET -1.800000 -1.400000 0.085000
			CHANNELS 3 Zrotation Yrotation Xrotation
			JOINT RightLeg
			{
				OFFSET -2.215000 -6.000000 0.000000
				CHANNELS 3 Zrotation Yrotation Xrotation
				JOINT RightFoot
				{
					OFFSET -2.500000 -6.900000 0.000000
					CHANNELS 3 Zrotation Yrotation Xrotation
					JOINT RightToeBase
					{
						OFFSET -0.200000 -0.500000 1.950000
						CHANNELS 3 Zrotation Yrotation Xrotation
						End Site
						{
							OFFSET 0.000000 0.000000 0.000000
						}
					}
				}
			}
		}
	}
	JOINT LowerBack
	{
		OFFSET 0.000000 0.000000 0.000000
		CHANNELS 3 Zrotation Yrotation Xrotation
		JOINT Spine
		{
			OFFSET -0.087000 1.940000 -0.288900
			CHANNELS 3 Zrotation Yrotation Xrotation
			JOINT Spine1
			{
				OFFSET 0.000000 1.950000 0.060000
				CHANNELS 3 Zrotation Yrotation Xrotation
				JOINT Neck
				{
					OFFSET 0.000000 0.000000 0.000000
					CHANNELS 3 Zrotation Yrotation Xrotation
					JOINT Neck1
					{
						OFFSET 0.000000 1.600000 0.340000
						CHANNELS 3 Zrotation Yrotation Xrotation
						JOINT Head
						{
							OFFSET 0.000000 1.667000 -0.240000
							CHANNELS 3 Zrotation Yrotation Xrotation
							End Site
							{
								OFFSET 0.000000 0.000000 0.000000
							}
						}
					}
				}
				JOINT LeftShoulder
				{
					OFFSET 0.000000 0.000000 0.000000
					CHANNELS 3 Zrotation Yrotation Xrotation
					JOINT LeftArm
					{
						OFFSET 2.700000 1.550000 -0.730000
						CHANNELS 3 Zrotation Yrotation Xrotation
						JOINT LeftForeArm
						{
							OFFSET 5.450000 0.000000 0.000000
							CHANNELS 3 Zrotation Yrotation Xrotation
							JOINT LeftHand
							{
								OFFSET 3.450000 0.000000 0.000000
								CHANNELS 3 Zrotation Yrotation Xrotation
								JOINT LeftHandIndex1
								{
									OFFSET 0.750000 0.000000 0.000000
									CHANNELS 3 Zrotation Yrotation Xrotation
									End Site
									{
										OFFSET 0.000000 0.000000 0.000000
									}
								}
							}
						}
					}
				}
				JOINT RightShoulder
				{
					OFFSET 0.000000 0.000000 0.000000
					CHANNELS 3 Zrotation Yrotation Xrotation
					JOINT RightArm
					{
						OFFSET -2.700000 1.550000 -0.730000
						CHANNELS 3 Zrotation Yrotation Xrotation
						JOINT RightForeArm
						{
							OFFSET -5.450000 0.000000 0.000000
							CHANNELS 3 Zrotation Yrotation Xrotation
							JOINT RightHand
							{
								OFFSET -3.450000 0.000000 0.000000
								CHANNELS 3 Zrotation Yrotation Xrotation
								JOINT RightHandIndex1
								{
									OFFSET -0.750000 0.000000 0.000000
									CHANNELS 3 Zrotation Yrotation Xrotation
									End Site
									{
										OFFSET 0.000000 0.000000 0.000000
									}
								}
							}
						}
					}
				}
			}
		}
	}
}
MOTION
Frames: 6
Frame Time: 0.016667
-0.207010 16.498140 -2.821420 8.762661 -13.168687 -3.361520 -14.664055 12.094044 2.415839 31.651925 1.328172 -12.251870 0.135968 6.288722 13.183950 -0.061549 5.370757 2.749805 0.412590 0.213660 0.128500 18.920486 -10.131453 3.944985 -24.460312 8.208182 -31.998670 20.632891 -19.886271 46.336501 -1.362636 -9.329402 1.147930 0.034880 0.326450 0.268060 -5.285204 0.343685 -7.797187 36.797426 -22.092597 26.711458 -36.394624 -12.167301 4.934988 13.310029 -15.965154 -9.779765 -33.017249 15.129498 23.745772 -7.899510 3.392720 -12.439880 -17.843982 3.287351 -0.558261 -34.361066 1.825543 -1.916029 13.828434 4.735298 0.354304 -3.991761 2.856155 0.365060 0.082830 -0.009120 0.270820 -10.379974 6.883596 7.512060 12.355287 10.276995 -6.869669 -100.252125 53.277984 -62.423699 1.811682 -1.202125 0.008850 0.252080 -0.003530 0.020210 
-0.193470 16.486160 -2.806660 9.244007 -12.800446 -2.998087 -14.661219 12.165794 2.345547 30.319578 1.001235 -11.408829 0.134002 5.895704 11.536146 -0.084772 5.165470 2.853689 0.395770 0.187090 0.130560 18.909833 -10.109565 3.996348 -24.740028 8.038505 -32.900416 19.848234 -19.919750 47.238874 -1.364473 -9.404295 1.130754 0.020200 0.330160 0.262620 -5.253583 0.195321 -7.760445 37.089494 -21.831401 25.509599 -36.211214 -11.819157 5.387136 13.444891 -15.784068 -10.099134 -32.537342 14.519695 23.933001 -8.507410 3.631310 -12.255170 -18.463289 2.452316 -0.299949 -34.024628 2.194193 -1.812207 12.953836 5.459133 0.387268 -3.998045 2.834650 0.370400 0.088470 -0.015930 0.265970 -9.922271 7.604845 7.769951 11.961243 9.441066 -7.572868 -102.635165 48.588997 -61.074742 1.922079 -1.497762 -0.004300 0.254110 0.000540 0.010180 
-0.175870 16.478110 -2.791910 10.276291 -11.993987 -4.016493 -14.683362 12.362734 2.401060 28.191375 0.581788 -8.294764 -1.188509 5.587769 8.293990 -0.059523 5.041690 2.950908 0.396510 0.192100 0.134280 18.844147 -10.086295 3.911392 -24.372631 7.780095 -33.179842 16.649364 -19.480409 50.587219 -1.415648 -9.601957 1.076296 0.010520 0.280560 0.250850 -5.086743 -0.281477 -7.744503 36.193259 -21.545749 25.754222 -34.402041 -11.432446 6.158663 13.734962 -15.449780 -10.943411 -32.199095 13.302129 25.030112 -10.040470 3.593330 -13.413980 -19.729042 0.249169 0.408898 -34.164969 2.742638 -1.839951 11.092017 5.623174 0.287338 -3.922669 2.828826 0.408650 0.051800 0.015770 0.265880 -8.925265 9.678879 8.102100 10.864020 7.967376 -9.578847 -107.712545 38.316358 -56.614379 2.059801 -1.869325 -0.004950 0.241650 -0.013360 -0.001160 
-0.152750 16.483240 -2.780730 10.897795 -11.598355 -4.756969 -14.742183 12.795747 2.384113 26.208267 0.487416 -7.012261 -2.616020 6.015137 9.692392 -0.127802 5.240837 2.927671 0.269210 -0.004490 0.084640 18.735738 -10.082341 3.792966 -23.362175 7.675059 -33.047863 13.200345 -18.218350 52.859835 -1.349143 -9.534298 1.108995 -0.068790 0.345400 0.233310 -4.804127 -1.027895 -7.679748 35.634511 -21.304817 26.629147 -32.610775 -10.985158 5.258827 14.523099 -15.517125 -12.103598 -33.274654 12.906648 25.269813 -11.903360 3.743850 -12.964570 -21.493509 -1.409020 0.752884 -34.862282 4.151067 -2.080091 11.127511 5.122628 0.179553 -3.965863 2.723911 0.478880 0.072280 -0.032870 0.218200 -8.442888 12.266463 8.777467 11.533195 7.545702 -11.311986 -116.127712 26.302383 -51.219162 2.076150 -2.019449 -0.107820 0.304710 0.095110 -0.045510 
-0.118960 16.494390 -2.775240 11.420998 -11.281322 -5.571745 -14.786762 13.235183 2.330680 24.236094 0.503079 -6.680419 -4.191601 6.916484 13.676739 -0.220979 5.564861 2.807769 0.199990 -0.127240 0.037070 18.640879 -10.164050 3.652356 -22.034386 7.655807 -32.579518 9.606452 -16.420440 54.570691 -1.269312 -9.351173 1.173553 -0.099790 0.393020 0.222570 -4.567427 -1.627767 -7.582069 34.945923 -21.108005 27.083481 -31.143124 -10.594551 4.953043 15.107796 -15.559646 -13.174650 -34.331134 13.357002 25.931584 -11.904570 3.813630 -12.510210 -22.900922 -3.234023 1.250733 -35.823419 5.510788 -2.126406 9.879154 5.842484 0.086748 -3.997946 2.652470 0.554130 0.086610 -0.078200 0.185080 -7.954631 15.077113 9.365153 11.079255 8.608562 -12.126153 -123.127624 15.538625 -42.936900 2.018560 -2.097180 -0.193230 0.346790 0.187480 -0.090150 
-0.086960 16.518130 -2.798720 11.812528 -10.958752 -5.970508 -14.831484 13.586893 2.356386 22.323747 0.373009 -7.729729 -5.986230 8.285268 19.248247 -0.052086 5.931518 2.644684 0.250220 -0.032410 0.053640 18.557384 -10.218926 3.510640 -20.499741 7.518781 -32.373939 6.148320 -14.298240 55.347817 -1.209800 -9.006079 1.294018 -0.093020 0.344830 0.228890 -4.358267 -2.171122 -7.531957 34.182091 -20.753214 27.808914 -29.712993 -10.060202 4.623433 15.714956 -15.286943 -14.313720 -34.939466 13.086503 27.038914 -12.022000 3.823540 -10.725130 -25.064517 -5.594069 1.719452 -35.584721 5.565286 -1.989160 10.556688 8.383480 0.478654 -3.977059 2.737376 0.482760 0.068730 -0.043660 0.215630 -6.746914 18.118853 10.072482 9.309331 7.935285 -12.393375 -128.404240 9.720367 -38.276786 2.040839 -2.259213 -0.103930 0.286330 0.114060 -0.043900 
